PathFileType	4	(X/Y/Z)	/Users/itak/Documents/Research/Walk-IL/dataset/trc/00341_00011.trc
DataRate	CameraRate	NumFrames	NumMarkers	Units	OrigDataRate	OrigDataStartFrame	OrigNumFrames
100.000000	100.000000	4	53	mm	100.000000	348	697
Frame#	Time	RPSI			LPSI			L3			STRN			T10			C7			CLAV			RBAK			LBAK			LSHO			LUPA			LAEL			LAOL			LWTS			LWPS			LFRA			LIFD			LHPS			LHTS			RSHO			RUPA			RAEL			RAOL			RWTS			RWPS			RFRA			RIFD			RHTS			RHPS			RBHD			LFHD			RFHD			LBHD			LHIP			RHIP			RASI			LASI			LKNE			LTHI			LANK			LTIP			LTOE			LMT1			LMT5			LHEE			RKNE			RTHI			RANK			RTIP			RTOE			RMT1			RMT5			RHEE			
		X1	Y1	Z1	X2	Y2	Z2	X3	Y3	Z3	X4	Y4	Z4	X5	Y5	Z5	X6	Y6	Z6	X7	Y7	Z7	X8	Y8	Z8	X9	Y9	Z9	X10	Y10	Z10	X11	Y11	Z11	X12	Y12	Z12	X13	Y13	Z13	X14	Y14	Z14	X15	Y15	Z15	X16	Y16	Z16	X17	Y17	Z17	X18	Y18	Z18	X19	Y19	Z19	X20	Y20	Z20	X21	Y21	Z21	X22	Y22	Z22	X23	Y23	Z23	X24	Y24	Z24	X25	Y25	Z25	X26	Y26	Z26	X27	Y27	Z27	X28	Y28	Z28	X29	Y29	Z29	X30	Y30	Z30	X31	Y31	Z31	X32	Y32	Z32	X33	Y33	Z33	X34	Y34	Z34	X35	Y35	Z35	X36	Y36	Z36	X37	Y37	Z37	X38	Y38	Z38	X39	Y39	Z39	X40	Y40	Z40	X41	Y41	Z41	X42	Y42	Z42	X43	Y43	Z43	X44	Y44	Z44	X45	Y45	Z45	X46	Y46	Z46	X47	Y47	Z47	X48	Y48	Z48	X49	Y49	Z49	X50	Y50	Z50	X51	Y51	Z51	X52	Y52	Z52	X53	Y53	Z53	

349	3.48	493.2831420898438	962.5574951171875	-496.2791442871094	472.3724060058594	950.9242553710938	-369.389892578125	485.3518981933594	1018.618957519531	-437.7390441894531	247.048095703125	1204.906982421875	-439.2147827148438	489.6629943847656	1138.642456054688	-425.247802734375	441.4145202636719	1384.169189453125	-397.7801513671875	287.4832153320312	1329.491577148438	-421.0272827148438	495.903564453125	1250.661010742188	-472.4783630371094	444.9696044921875	1342.40673828125	-300.390869140625	356.455322265625	1355.845581054688	-250.5025024414062	386.9038391113281	1244.137573242188	-180.8790740966797	403.6400756835938	1045.103637695312	-145.8239440917969	461.0315246582031	1033.43505859375	-207.7644348144531	331.8999633789062	791.413330078125	-154.2988891601562	379.5290832519531	790.7665405273438	-102.7013168334961	402.8705139160156	940.9450073242188	-125.1940078735352	344.4883728027344	631.6067504882812	-139.3590850830078	389.3400573730469	721.2275390625	-100.3163986206055	330.2919616699219	714.934326171875	-127.8399353027344	401.3314819335938	1386.525512695312	-562.4329223632812	417.7763671875	1333.944946289062	-632.4168701171875	396.2268676757812	1097.840087890625	-755.681396484375	424.3394775390625	1057.359741210938	-674.765625	270.9058837890625	879.9199829101562	-805.1438598632812	311.1982421875	888.5299682617188	-869.0780029296875	368.1184387207031	1041.2578125	-789.9650268554688	263.4048156738281	721.4788208007812	-875.2100219726562	240.4675140380859	792.7225341796875	-858.7216796875	293.6392822265625	810.0428466796875	-899.654541015625	388.5335083007812	1594.802368164062	-475.1605529785156	209.0803070068359	1591.35888671875	-367.9147033691406	225.2803039550781	1597.524780273438	-467.8557434082031	391.0451049804688	1582.726928710938	-330.5503540039062	364.715087890625	897.622314453125	-285.4578857421875	437.4374084472656	915.1278076171875	-621.6077880859375	325.8482666015625	942.5721435546875	-600.8499145507812	263.4134826660156	930.5501098632812	-369.7009887695312	139.1322479248047	484.9140319824219	-367.6690063476562	192.5610046386719	611.0967407226562	-334.7091674804688	330.5865478515625	92.28022003173828	-417.6155395507812	229.3586273193359	271.5922241210938	-383.7432250976562	134.4008331298828	50.66313934326172	-484.7138061523438	205.0198974609375	49.76287078857422	-522.85693359375	211.1702423095703	59.60995864868164	-409.9695434570312	365.4059753417969	102.7010040283203	-484.3309631347656	427.6661682128906	451.9491271972656	-627.0618896484375	377.1566162109375	709.5804443359375	-647.614013671875	553.7271118164062	48.11875152587891	-590.6907958984375	436.2645874023438	331.3014221191406	-620.5330200195312	355.3281555175781	39.36235046386719	-617.291259765625	388.4961242675781	34.27615737915039	-555.7440185546875	468.9372253417969	31.76914024353027	-644.3876953125	579.6276245117188	51.70571136474609	-525.993408203125	
350	3.49	485.0503234863281	962.0000610351562	-498.9870910644531	465.0922546386719	950.5105590820312	-372.0065612792969	477.7359924316406	1017.84130859375	-440.6990661621094	239.1845855712891	1203.868408203125	-439.85888671875	482.2926635742188	1137.925048828125	-428.70654296875	433.8812866210938	1383.395263671875	-400.6429748535156	279.6622314453125	1328.485595703125	-422.1251831054688	487.6718444824219	1249.916748046875	-475.992431640625	438.5641784667969	1341.615234375	-303.3508605957031	350.6340026855469	1354.928466796875	-252.3933868408203	382.5779418945312	1243.610107421875	-183.1821136474609	401.956298828125	1045.040283203125	-147.6706390380859	457.8358154296875	1033.451538085938	-210.8567962646484	332.1221313476562	790.8421020507812	-152.244384765625	381.2647094726562	791.0189208984375	-101.912483215332	402.5751342773438	941.0872192382812	-126.1502380371094	346.2233276367188	631.3265380859375	-135.9995727539062	391.5565185546875	721.6397094726562	-99.20474243164062	331.8470153808594	714.6341552734375	-124.9396743774414	391.8420104980469	1385.703125	-564.753173828125	407.302001953125	1333.214965820312	-634.9801635742188	382.4925231933594	1098.492797851562	-760.004638671875	410.3570556640625	1056.78515625	-679.6336669921875	253.3159790039062	883.2987060546875	-811.3710327148438	293.9268188476562	891.8147583007812	-875.2057495117188	353.5667114257812	1042.689819335938	-794.7721557617188	242.55322265625	726.1299438476562	-883.4510498046875	221.0653991699219	797.412353515625	-866.065185546875	274.8666381835938	814.1590576171875	-906.7205200195312	380.0653076171875	1593.760375976562	-477.55029296875	201.9941253662109	1590.5966796875	-367.9575500488281	216.9178771972656	1596.70361328125	-468.1072387695312	384.3964538574219	1581.6962890625	-333.017578125	357.9996032714844	897.3570556640625	-287.2611694335938	428.6730651855469	914.0889282226562	-623.8687744140625	317.2108154296875	941.2086181640625	-602.340087890625	255.9437866210938	930.0031127929688	-370.9086608886719	132.1835632324219	484.5237121582031	-368.1964416503906	185.5364990234375	611.0009765625	-334.8193054199219	299.8869323730469	82.54522705078125	-423.8703002929688	210.4618682861328	267.1231689453125	-386.4849853515625	99.489501953125	52.65509796142578	-483.8492431640625	168.5413055419922	47.55326080322266	-524.4762573242188	179.2118072509766	56.98577499389648	-411.9717407226562	333.0096130371094	90.93672943115234	-491.6236267089844	423.9072875976562	451.3643188476562	-627.1136474609375	370.09375	708.1632080078125	-648.4896240234375	553.4323120117188	48.55276870727539	-590.4867553710938	433.7672119140625	330.7948608398438	-620.5232543945312	355.2250061035156	39.24312210083008	-617.2992553710938	388.3850402832031	34.09535980224609	-555.6382446289062	468.8426818847656	31.91588973999023	-644.2805786132812	579.472412109375	52.25668334960938	-525.8892211914062	
351	3.5	476.6897277832031	961.3533325195312	-501.4058227539062	457.5682983398438	950.02880859375	-374.3570556640625	469.9902954101562	1016.9716796875	-443.4080505371094	231.2440795898438	1202.755859375	-440.4173889160156	474.8861694335938	1137.10693359375	-431.9499206542969	426.2405700683594	1382.506469726562	-403.302734375	271.7807312011719	1327.388793945312	-423.1178894042969	479.3841857910156	1249.071411132812	-479.2790832519531	432.0162353515625	1340.7265625	-306.1224670410156	344.6408081054688	1353.894897460938	-254.1534881591797	377.9728698730469	1242.907958984375	-185.4091339111328	399.8269348144531	1044.785400390625	-149.6504211425781	454.2413940429688	1033.288330078125	-213.9813232421875	332.1636047363281	790.07421875	-150.5399322509766	382.7778625488281	791.12060546875	-101.421989440918	401.9046630859375	941.0624389648438	-127.3145751953125	348.1075744628906	630.858642578125	-132.9935607910156	393.64111328125	721.9437866210938	-98.43685913085938	333.3700866699219	714.1544799804688	-122.4179992675781	382.371826171875	1384.767944335938	-566.8894653320312	396.8930053710938	1332.37060546875	-637.3348999023438	368.9480590820312	1098.962890625	-763.9381713867188	396.4057922363281	1056.14111328125	-683.9404907226562	235.7280883789062	886.6668701171875	-817.1412353515625	276.8862915039062	894.9196166992188	-880.79052734375	339.2432250976562	1043.92138671875	-799.1531982421875	221.0106353759766	730.9000244140625	-891.1077270507812	201.6790161132812	802.1138916015625	-872.8809814453125	256.2777709960938	818.1278076171875	-913.1685180664062	371.5411376953125	1592.613647460938	-479.752197265625	194.8639373779297	1589.740844726562	-367.9229736328125	208.5496978759766	1595.800903320312	-468.2622985839844	377.6845092773438	1580.554931640625	-335.3250427246094	350.9885559082031	896.966796875	-288.9120483398438	419.8978881835938	912.9813232421875	-625.9005737304688	308.5044555664062	939.8035888671875	-603.72900390625	248.2736663818359	929.32958984375	-372.0497741699219	126.0369873046875	483.5678100585938	-368.7658081054688	178.9935760498047	610.3800048828125	-334.9175415039062	268.5601196289062	73.49772644042969	-429.3141479492188	191.585205078125	262.7660522460938	-388.7967224121094	64.93927001953125	55.42081451416016	-482.0740356445312	132.0651702880859	46.31541442871094	-525.0764770507812	147.1871490478516	55.02858734130859	-413.1133422851562	299.8474426269531	80.02754974365234	-497.9918212890625	420.0513610839844	450.7889099121094	-627.0296020507812	362.982177734375	706.712890625	-649.2609252929688	553.1177368164062	49.04820251464844	-590.2744140625	431.2192993164062	330.3101196289062	-620.4615478515625	355.1286315917969	39.11936950683594	-617.3093872070312	388.2911376953125	33.91313171386719	-555.5320434570312	468.7156982421875	32.09608459472656	-644.161865234375	579.2744750976562	52.87231826782227	-525.7503662109375	
352	3.51	468.1929626464844	960.6032104492188	-503.5187683105469	449.7828369140625	949.4563598632812	-376.42333984375	462.0967407226562	1016.006042480469	-445.85400390625	223.2157440185547	1201.573974609375	-440.8929748535156	467.4374694824219	1136.184936523438	-434.9741821289062	418.4946899414062	1381.494750976562	-405.7574768066406	263.8348388671875	1326.206909179688	-424.0089111328125	471.031494140625	1248.113037109375	-482.3409423828125	425.3294067382812	1339.737426757812	-308.6980895996094	338.482421875	1352.750610351562	-255.7837371826172	373.1060180664062	1242.042724609375	-187.5400238037109	397.2490234375	1044.3525390625	-151.7292022705078	450.2533874511719	1032.948120117188	-217.1229858398438	332.0117797851562	789.117431640625	-149.1741943359375	384.0196228027344	791.0693359375	-101.236930847168	400.8427734375	940.873046875	-128.6654815673828	350.1026611328125	630.21337890625	-130.3987426757812	395.5675659179688	722.1358032226562	-98.01645660400391	334.83837890625	713.4909057617188	-120.2947082519531	372.9312438964844	1383.723510742188	-568.8422241210938	386.562255859375	1331.419311523438	-639.484375	355.5950622558594	1099.252075195312	-767.4974975585938	382.494384765625	1055.422119140625	-687.7255859375	218.1544494628906	890.0105590820312	-822.4324951171875	260.0807189941406	897.8265380859375	-885.8226318359375	325.1326599121094	1044.9482421875	-803.117431640625	199.2510375976562	735.69287109375	-898.1053466796875	182.4221038818359	806.7921142578125	-879.1246337890625	237.8870849609375	821.924072265625	-918.9848022460938	362.9693603515625	1591.368530273438	-481.7749633789062	187.6849212646484	1588.78955078125	-367.810302734375	200.169189453125	1594.811401367188	-468.3214111328125	370.9029541015625	1579.316772460938	-337.4814147949219	343.6614074707031	896.4213256835938	-290.4051818847656	411.1088562011719	911.808349609375	-627.6949462890625	299.7523498535156	938.3544921875	-605.0162353515625	240.3711547851562	928.5108032226562	-373.1189575195312	120.5602645874023	482.0641784667969	-369.3753051757812	172.90576171875	609.2015991210938	-335.0108337402344	236.8034362792969	65.34485626220703	-433.9155883789062	172.7630767822266	258.62060546875	-390.7005615234375	30.94268035888672	59.10214996337891	-479.4938354492188	95.82854461669922	46.20181655883789	-524.73779296875	115.2711181640625	53.89234924316406	-413.4532775878906	266.1487121582031	70.20092010498047	-503.4432067871094	416.1016845703125	450.2263488769531	-626.8446655273438	355.8303833007812	705.2499389648438	-649.945068359375	552.78515625	49.62783432006836	-590.0642700195312	428.6083374023438	329.8589782714844	-620.3760986328125	355.0431823730469	38.99527740478516	-617.3203125	388.2070922851562	33.73654556274414	-555.432373046875	468.5560607910156	32.30946731567383	-644.0338745117188	579.0324096679688	53.56906890869141	-525.582763671875	
